<svg xmlns="http://www.w3.org/2000/svg" version="1.1" xmlns:xlink="http://www.w3.org/1999/xlink" viewBox="0 0 200 200"><rect width="200" height="200" fill="url('#gradient')"></rect><defs><linearGradient id="gradient" gradientTransform="rotate(62 0.5 0.5)"><stop offset="0%" stop-color="#ffabab"></stop><stop offset="100%" stop-color="#ba2bac"></stop></linearGradient></defs><g><g fill="#ffffff" transform="matrix(1.2627802690582959,0,0,1.2627802690582959,10.643950760952556,109.47704863655193)" stroke="#ec7313" stroke-width="0"><path d="M1.07-14.22L5.58-14.22L8.75-4.33L11.91-14.22L16.43-14.22L16.43 0L12.99 0L12.99-3.32L13.32-10.12L9.88 0L7.62 0L4.17-10.13L4.50-3.32L4.50 0L1.07 0L1.07-14.22ZM23.56 0.20L23.56 0.20Q21.13 0.20 19.63-1.25Q18.13-2.71 18.13-5.03L18.13-5.03L18.13-5.30Q18.13-6.92 18.73-8.16Q19.33-9.40 20.48-10.08Q21.63-10.76 23.21-10.76L23.21-10.76Q25.44-10.76 26.73-9.38Q28.02-8.00 28.02-5.53L28.02-5.53L28.02-4.25L21.47-4.25Q21.65-3.36 22.25-2.85Q22.84-2.34 23.79-2.34L23.79-2.34Q25.35-2.34 26.23-3.44L26.23-3.44L27.73-1.66Q27.12-0.81 25.99-0.31Q24.86 0.20 23.56 0.20ZM23.19-8.22L23.19-8.22Q21.75-8.22 21.47-6.31L21.47-6.31L24.79-6.31L24.79-6.56Q24.81-7.35 24.39-7.79Q23.97-8.22 23.19-8.22ZM29.37-10.57L32.45-10.57L32.56-9.33Q33.68-10.76 35.58-10.76L35.58-10.76Q37.58-10.76 38.28-9.17L38.28-9.17Q39.36-10.76 41.39-10.76L41.39-10.76Q44.60-10.76 44.69-6.88L44.69-6.88L44.69 0L41.39 0L41.39-6.67Q41.39-7.48 41.11-7.85Q40.84-8.22 40.12-8.22L40.12-8.22Q39.14-8.22 38.66-7.35L38.66-7.35L38.67-7.22L38.67 0L35.37 0L35.37-6.65Q35.37-7.48 35.11-7.85Q34.84-8.22 34.10-8.22L34.10-8.22Q33.15-8.22 32.66-7.35L32.66-7.35L32.66 0L29.37 0L29.37-10.57ZM46.16-4.82L46.15-5.38Q46.15-6.96 46.77-8.20Q47.38-9.43 48.54-10.10Q49.69-10.76 51.24-10.76L51.24-10.76Q53.61-10.76 54.98-9.29Q56.35-7.82 56.35-5.29L56.35-5.29L56.35-5.18Q56.35-2.71 54.98-1.25Q53.60 0.20 51.26 0.20L51.26 0.20Q49.00 0.20 47.64-1.16Q46.27-2.51 46.16-4.82L46.16-4.82ZM49.45-5.77L49.44-5.18Q49.44-3.71 49.90-3.03Q50.36-2.34 51.26-2.34L51.26-2.34Q53.02-2.34 53.06-5.05L53.06-5.05L53.06-5.38Q53.06-8.22 51.24-8.22L51.24-8.22Q49.59-8.22 49.45-5.77L49.45-5.77ZM64.25-10.64L64.19-7.59L63.11-7.67Q61.55-7.67 61.11-6.69L61.11-6.69L61.11 0L57.82 0L57.82-10.57L60.91-10.57L61.02-9.21Q61.85-10.76 63.33-10.76L63.33-10.76Q63.86-10.76 64.25-10.64L64.25-10.64ZM68.85-10.57L68.85 0L65.55 0L65.55-10.57L68.85-10.57ZM65.35-13.29L65.35-13.29Q65.35-13.99 65.86-14.44Q66.37-14.89 67.18-14.89Q67.99-14.89 68.50-14.44Q69.00-13.99 69.00-13.29Q69.00-12.59 68.50-12.14Q67.99-11.69 67.18-11.69Q66.37-11.69 65.86-12.14Q65.35-12.59 65.35-13.29ZM75.99 0.20L75.99 0.20Q73.55 0.20 72.05-1.25Q70.55-2.71 70.55-5.03L70.55-5.03L70.55-5.30Q70.55-6.92 71.15-8.16Q71.75-9.40 72.90-10.08Q74.05-10.76 75.63-10.76L75.63-10.76Q77.86-10.76 79.15-9.38Q80.44-8.00 80.44-5.53L80.44-5.53L80.44-4.25L73.90-4.25Q74.07-3.36 74.67-2.85Q75.26-2.34 76.21-2.34L76.21-2.34Q77.77-2.34 78.65-3.44L78.65-3.44L80.16-1.66Q79.54-0.81 78.41-0.31Q77.29 0.20 75.99 0.20ZM75.62-8.22L75.62-8.22Q74.17-8.22 73.90-6.31L73.90-6.31L77.22-6.31L77.22-6.56Q77.24-7.35 76.82-7.79Q76.40-8.22 75.62-8.22ZM87.29-2.97L87.29-2.97Q87.29-3.39 86.86-3.64Q86.42-3.90 85.19-4.17Q83.96-4.44 83.15-4.89Q82.35-5.33 81.93-5.97Q81.51-6.60 81.51-7.42L81.51-7.42Q81.51-8.88 82.71-9.82Q83.92-10.76 85.86-10.76L85.86-10.76Q87.95-10.76 89.22-9.81Q90.49-8.87 90.49-7.32L90.49-7.32L87.19-7.32Q87.19-8.59 85.85-8.59L85.85-8.59Q85.33-8.59 84.98-8.31Q84.63-8.02 84.63-7.59L84.63-7.59Q84.63-7.15 85.06-6.88Q85.49-6.60 86.43-6.43Q87.37-6.25 88.09-6.01L88.09-6.01Q90.47-5.19 90.47-3.07L90.47-3.07Q90.47-1.62 89.18-0.71Q87.90 0.20 85.86 0.20L85.86 0.20Q84.50 0.20 83.44-0.29Q82.37-0.78 81.78-1.62Q81.18-2.46 81.18-3.39L81.18-3.39L84.26-3.39Q84.28-2.66 84.75-2.32Q85.21-1.98 85.95-1.98L85.95-1.98Q86.62-1.98 86.96-2.26Q87.29-2.53 87.29-2.97ZM96.58-4.82L96.57-5.38Q96.57-6.96 97.19-8.20Q97.80-9.43 98.96-10.10Q100.11-10.76 101.66-10.76L101.66-10.76Q104.03-10.76 105.40-9.29Q106.77-7.82 106.77-5.29L106.77-5.29L106.77-5.18Q106.77-2.71 105.40-1.25Q104.02 0.20 101.68 0.20L101.68 0.20Q99.42 0.20 98.06-1.16Q96.69-2.51 96.58-4.82L96.58-4.82ZM99.87-5.77L99.86-5.18Q99.86-3.71 100.32-3.03Q100.78-2.34 101.68-2.34L101.68-2.34Q103.44-2.34 103.48-5.05L103.48-5.05L103.48-5.38Q103.48-8.22 101.66-8.22L101.66-8.22Q100.01-8.22 99.87-5.77L99.87-5.77ZM112.25 0L108.95 0L108.95-8.28L107.41-8.28L107.41-10.57L108.95-10.57L108.95-11.41Q108.95-13.21 110.01-14.21Q111.07-15.21 113.00-15.21L113.00-15.21Q113.70-15.21 114.54-15L114.54-15L114.55-12.58Q114.25-12.67 113.74-12.67L113.74-12.67Q112.25-12.67 112.25-11.38L112.25-11.38L112.25-10.57L114.31-10.57L114.31-8.28L112.25-8.28L112.25 0ZM126.84 0L126.74-1.14Q125.69 0.20 123.92 0.20L123.92 0.20Q122.18 0.20 121.28-0.82Q120.39-1.83 120.39-3.72L120.39-3.72L120.39-10.57L123.68-10.57L123.68-3.70Q123.68-2.34 125-2.34L125-2.34Q126.13-2.34 126.61-3.15L126.61-3.15L126.61-10.57L129.92-10.57L129.92 0L126.84 0ZM137.26-2.97L137.26-2.97Q137.26-3.39 136.82-3.64Q136.38-3.90 135.15-4.17Q133.92-4.44 133.12-4.89Q132.31-5.33 131.89-5.97Q131.47-6.60 131.47-7.42L131.47-7.42Q131.47-8.88 132.68-9.82Q133.88-10.76 135.82-10.76L135.82-10.76Q137.91-10.76 139.18-9.81Q140.45-8.87 140.45-7.32L140.45-7.32L137.15-7.32Q137.15-8.59 135.81-8.59L135.81-8.59Q135.29-8.59 134.94-8.31Q134.59-8.02 134.59-7.59L134.59-7.59Q134.59-7.15 135.02-6.88Q135.45-6.60 136.39-6.43Q137.33-6.25 138.05-6.01L138.05-6.01Q140.43-5.19 140.43-3.07L140.43-3.07Q140.43-1.62 139.15-0.71Q137.86 0.20 135.82 0.20L135.82 0.20Q134.46 0.20 133.40-0.29Q132.33-0.78 131.74-1.62Q131.14-2.46 131.14-3.39L131.14-3.39L134.22-3.39Q134.24-2.66 134.71-2.32Q135.18-1.98 135.91-1.98L135.91-1.98Q136.58-1.98 136.92-2.26Q137.26-2.53 137.26-2.97Z"></path></g></g></svg>